<svg viewBox="-250 -250 500 500" width="500" height="500" xmlns="http://www.w3.org/2000/svg"><path d="M-32.535083204399164,-83.21491119276875L-38.72216574405358,-80.66927080841451L-45.74446831911793,-77.66644335860617zM-32.535083204399164,-83.21491119276875L-45.74446831911793,-77.66644335860617L-52.70912624976705,-74.57376309494228zM-32.535083204399164,-83.21491119276875L-52.70912624976705,-74.57376309494228L-59.60556945469937,-71.39569375715651zM-32.535083204399164,-83.21491119276875L-59.60556945469937,-71.39569375715651L-66.42331717770124,-68.1367464900873zM-32.535083204399164,-83.21491119276875L-66.42331717770124,-68.1367464900873L-73.15151541577094,-64.80139334350507zM-32.535083204399164,-83.21491119276875L-73.15151541577094,-64.80139334350507L-79.77953652850793,-61.39445928531013zM-32.535083204399164,-83.21491119276875L-79.77953652850793,-61.39445928531013L-86.2964717191206,-57.920675855208685zM46.15153861600199,-108.14110798980029L-31.65280670492604,-83.57793111661718L-32.535083204399164,-83.21491119276875zM46.15153861600199,-108.14110798980029L-24.546957488790664,-86.38803290680953L-31.65280670492604,-83.57793111661718zM46.15153861600199,-108.14110798980029L-17.41518046803868,-89.09532464708118L-24.546957488790664,-86.38803290680953zM-32.535083204399164,-83.21491119276875L-86.2964717191206,-57.920675855208685L-92.69144143975812,-54.38500983918563zM46.15153861600199,-108.14110798980029L-10.268159280499981,-91.69557938442676L-17.41518046803868,-89.09532464708118zM46.15153861600199,-108.14110798980029L-3.1163962823727456,-94.18459680209867L-10.268159280499981,-91.69557938442676zM-32.535083204399164,-83.21491119276875L-92.69144143975812,-54.38500983918563L-98.95334632814416,-50.79234070108119zM46.15153861600199,-108.14110798980029L4.029111248599424,-96.55814220431485L-3.1163962823727456,-94.18459680209867zM46.15153861600199,-108.14110798980029L11.157568885379053,-98.81198496026127L4.029111248599424,-96.55814220431485zM-32.535083204399164,-83.21491119276875L-98.95334632814416,-50.79234070108119L-105.07088741886822,-47.14808672307263zM46.15153861600199,-108.14110798980029L18.257933589186077,-100.94210593778686L11.157568885379053,-98.81198496026127zM46.15153861600199,-108.14110798980029L25.318921318059886,-102.94422595158419L18.257933589186077,-100.94210593778686zM-32.535083204399164,-83.21491119276875L-105.07088741886822,-47.14808672307263L-111.03270631821319,-43.457424496324315zM46.15153861600199,-108.14110798980029L32.32933148434402,-104.8141939373999L25.318921318059886,-102.94422595158419zM-32.535083204399164,-83.21491119276875L-111.03270631821319,-43.457424496324315L-116.82732352235085,-39.72600852830956zM46.15153861600199,-108.14110798980029L39.27743740312303,-106.54785985059445L32.32933148434402,-104.8141939373999zM-32.535083204399164,-83.21491119276875L-116.82732352235085,-39.72600852830956L-122.44290159274622,-35.95945781314007zM46.15153861600199,-108.14110798980029L-32.535083204399164,-83.21491119276875L-73.54171776053107,-53.92522929695338zM-32.535083204399164,-83.21491119276875L-122.44290159274622,-35.95945781314007L-127.86768805912818,-32.16380198215441zM-32.535083204399164,-83.21491119276875L-127.86768805912818,-32.16380198215441L-133.08956083238974,-28.345123073150184zM-32.535083204399164,-83.21491119276875L-133.08956083238974,-28.345123073150184L-138.09625246606453,-24.509820031955527zM-32.535083204399164,-83.21491119276875L-138.09625246606453,-24.509820031955527L-142.87546428230803,-20.664660422698777zM-32.535083204399164,-83.21491119276875L-142.87546428230803,-20.664660422698777L-147.41458694992107,-16.81634082903318z" style="fill:rgb(82,237,172)"/><path d="M10.48042821691327,14.84723276947096L-73.54171776053107,-53.92522929695338L-44.43683592825551,14.072024449613233z" style="fill:rgb(49,63,205)"/><path d="M-32.535083204399164,-83.21491119276875L-147.41458694992107,-16.81634082903318L-149.6735994769437,-14.790348521158633z" style="fill:rgb(82,237,172)"/><path d="M-73.54171776053107,-53.92522929695338L-127.82450234260692,-15.152770985242045L-44.43683592825551,14.072024449613233z" style="fill:rgb(217,127,217)"/><path d="M46.15153861600199,-108.14110798980029L-18.717712476347327,-56.98004258600767L51.04536441610246,-109.1856267675456zM-32.535083204399164,-83.21491119276875L-149.6735994769437,-14.790348521158633L-127.82450234260692,-15.152770985242045zM46.15153861600199,-108.14110798980029L-73.54171776053107,-53.92522929695338L-18.717712476347327,-56.98004258600767z" style="fill:rgb(82,237,172)"/><path d="M-44.43683592825551,14.072024449613233L-127.82450234260692,-15.152770985242045L-95.85702579091306,55.00460331112014z" style="fill:rgb(217,127,217)"/><path d="M-149.6735994769437,-14.790348521158633L-151.70087663767106,-12.972153788526484L-155.72160896405464,-9.1394664734777z" style="fill:rgb(82,237,172)"/><path d="M-18.717712476347327,-56.98004258600767L-73.54171776053107,-53.92522929695338L10.48042821691327,14.84723276947096z" style="fill:rgb(49,63,205)"/><path d="M-149.6735994769437,-14.790348521158633L-155.72160896405464,-9.1394664734777L-159.4638984850767,-5.326076296125554zM-18.717712476347327,-56.98004258600767L-73.54171776053107,-53.92522929695338L-127.82450234260692,-15.152770985242045zM-149.6735994769437,-14.790348521158633L-159.4638984850767,-5.326076296125554L-162.91478329037616,-1.5399977804437446zM-149.6735994769437,-14.790348521158633L-162.91478329037616,-1.5399977804437446L-166.06117008474334,2.2104237358810783zM-149.6735994769437,-14.790348521158633L-166.06117008474334,2.2104237358810783L-168.8901544857322,5.916570543056909zM-149.6735994769437,-14.790348521158633L-168.8901544857322,5.916570543056909L-171.3888825688331,9.569615577764917z" style="fill:rgb(82,237,172)"/><path d="M10.48042821691327,14.84723276947096L-18.717712476347327,-56.98004258600767L-41.16308364411968,58.18653951230323z" style="fill:rgb(217,127,217)"/><path d="M-149.6735994769437,-14.790348521158633L-171.3888825688331,9.569615577764917L-173.54460598069747,13.160159691000239z" style="fill:rgb(82,237,172)"/><path d="M-95.85702579091306,55.00460331112014L-73.40590121162032,-16.055445882038022L-127.82450234260692,-15.152770985242045z" style="fill:rgb(49,63,205)"/><path d="M-149.6735994769437,-14.790348521158633L-173.54460598069747,13.160159691000239L-175.34464033004002,16.678728248445573zM-149.6735994769437,-14.790348521158633L-175.34464033004002,16.678728248445573L-176.77676355408047,20.115503408236677z" style="fill:rgb(82,237,172)"/><path d="M-41.16308364411968,58.18653951230323L-73.40590121162032,-16.055445882038022L-95.85702579091306,55.00460331112014z" style="fill:rgb(49,63,205)"/><path d="M-18.717712476347327,-56.98004258600767L-127.82450234260692,-15.152770985242045L-73.40590121162032,-16.055445882038022zM137.93140721860232,-57.25130020337582L52.93951814641891,-109.58980810649375L51.04536441610246,-109.1856267675456zM-149.6735994769437,-14.790348521158633L-176.77676355408047,20.115503408236677L-177.82890213762832,23.460489175441484zM137.93140721860232,-57.25130020337582L59.629183804438,-110.88987650455752L52.93951814641891,-109.58980810649375zM137.93140721860232,-57.25130020337582L66.20802622280038,-112.03712949946113L59.629183804438,-110.88987650455752zM-149.6735994769437,-14.790348521158633L-177.82890213762832,23.460489175441484L-178.489693486308,26.703341854010635zM137.93140721860232,-57.25130020337582L72.66312189231955,-113.02755398105926L66.20802622280038,-112.03712949946113z" style="fill:rgb(82,237,172)"/><path d="M-41.16308364411968,58.18653951230323L-18.717712476347327,-56.98004258600767L-73.40590121162032,-16.055445882038022z" style="fill:rgb(217,127,217)"/><path d="M137.93140721860232,-57.25130020337582L78.98152438051856,-113.85715534602181L72.66312189231955,-113.02755398105926zM-149.6735994769437,-14.790348521158633L-178.489693486308,26.703341854010635L-178.7480660975447,29.83362816720283zM137.93140721860232,-57.25130020337582L85.1496911204751,-114.5219736159857L78.98152438051856,-113.85715534602181zM-149.6735994769437,-14.790348521158633L-178.7480660975447,29.83362816720283L-178.59356701299424,32.840406445892185zM137.93140721860232,-57.25130020337582L91.15407347990556,-115.0180123796499L85.1496911204751,-114.5219736159857zM137.93140721860232,-57.25130020337582L96.98066632371342,-115.34164038018618L91.15407347990556,-115.0180123796499zM-149.6735994769437,-14.790348521158633L-178.59356701299424,32.840406445892185L-178.016706707372,35.713035981949744zM137.93140721860232,-57.25130020337582L102.61525112067972,-115.48907540851772L96.98066632371342,-115.34164038018618zM-149.6735994769437,-14.790348521158633L-178.016706707372,35.713035981949744L-177.0086888040243,38.440491652243885zM137.93140721860232,-57.25130020337582L108.04324797910428,-115.45670752052293L102.61525112067972,-115.48907540851772zM137.93140721860232,-57.25130020337582L113.24997208857302,-115.24115446232042L108.04324797910428,-115.45670752052293zM-149.6735994769437,-14.790348521158633L-177.0086888040243,38.440491652243885L-175.56170266283493,41.011756796341075zM137.93140721860232,-57.25130020337582L118.22031272781403,-114.8392717631812L113.24997208857302,-115.24115446232042zM137.93140721860232,-57.25130020337582L51.04536441610246,-109.1856267675456L-73.40590121162032,-16.055445882038022zM-149.6735994769437,-14.790348521158633L-175.56170266283493,41.011756796341075L-173.66902567044042,43.41567242558838zM137.93140721860232,-57.25130020337582L122.93900309403755,-114.24804849097623L118.22031272781403,-114.8392717631812zM-149.6735994769437,-14.790348521158633L-173.66902567044042,43.41567242558838L-171.32537019026944,45.64154350527493zM137.93140721860232,-57.25130020337582L127.39079760018649,-113.4646291418746L122.93900309403755,-114.24804849097623zM-149.6735994769437,-14.790348521158633L-171.32537019026944,45.64154350527493L-168.5267136997419,47.67828007727402zM137.93140721860232,-57.25130020337582L131.55996723746307,-112.48660616993976L127.39079760018649,-113.4646291418746z" style="fill:rgb(82,237,172)"/><path d="M-138.98065826710388,116.45623595866705L-175.56170266283493,41.011756796341075L-140.6689792112604,113.37494139919875z" style="fill:rgb(15,72,151)"/><path d="M180.41187977822295,-15.439097977176273L153.81503785845564,-94.71707386439842L181.10976025062718,-11.942781299035442z" style="fill:rgb(246,164,154)"/><path d="M137.93140721860232,-57.25130020337582L135.43109652617187,-111.31183073590756L131.55996723746307,-112.48660616993976zM-149.6735994769437,-14.790348521158633L-168.5267136997419,47.67828007727402L-165.27041390817578,49.51536830314508zM137.93140721860232,-57.25130020337582L138.9883587563621,-109.93865171779666L135.43109652617187,-111.31183073590756z" style="fill:rgb(82,237,172)"/><path d="M-140.6689792112604,113.37494139919875L-175.56170266283493,41.011756796341075L-177.0086888040243,38.440491652243885z" style="fill:rgb(15,72,151)"/><path d="M-136.8597411789132,119.3765664379335L-173.66902567044042,43.41567242558838L-138.98065826710388,116.45623595866705z" style="fill:rgb(17,70,156)"/><path d="M-149.6735994769437,-14.790348521158633L-165.27041390817578,49.51536830314508L-161.5556221581451,51.142474119080994z" style="fill:rgb(82,237,172)"/><path d="M181.10976025062718,-11.942781299035442L154.32018896137092,-91.75148474410777L181.37898832777833,-8.262094925484469z" style="fill:rgb(245,162,160)"/><path d="M137.93140721860232,-57.25130020337582L142.21612360061118,-108.36548759806898L138.9883587563621,-109.93865171779666zM-149.6735994769437,-14.790348521158633L-161.5556221581451,51.142474119080994L-157.38325397605567,52.549647218607625z" style="fill:rgb(82,237,172)"/><path d="M181.10976025062718,-11.942781299035442L153.81503785845564,-94.71707386439842L154.32018896137092,-91.75148474410777z" style="fill:rgb(246,164,154)"/><path d="M-138.98065826710388,116.45623595866705L-173.66902567044042,43.41567242558838L-175.56170266283493,41.011756796341075z" style="fill:rgb(17,70,156)"/><path d="M-134.30202520845174,122.12381465862273L-171.32537019026944,45.64154350527493L-136.8597411789132,119.3765664379335z" style="fill:rgb(19,69,162)"/><path d="M137.93140721860232,-57.25130020337582L145.09903568521696,-106.59157096709605L142.21612360061118,-108.36548759806898z" style="fill:rgb(82,237,172)"/><path d="M181.37898832777833,-8.262094925484469L154.38283894594758,-88.59570659216125L181.2087775425412,-4.403238403082783z" style="fill:rgb(244,159,166)"/><path d="M-149.6735994769437,-14.790348521158633L-157.38325397605567,52.549647218607625L-152.7561957698975,53.727263378782546zM137.93140721860232,-57.25130020337582L147.62166275120282,-104.6164879941602L145.09903568521696,-106.59157096709605z" style="fill:rgb(82,237,172)"/><path d="M181.37898832777833,-8.262094925484469L154.32018896137092,-91.75148474410777L154.38283894594758,-88.59570659216125z" style="fill:rgb(245,162,160)"/><path d="M-136.8597411789132,119.3765664379335L-171.32537019026944,45.64154350527493L-173.66902567044042,43.41567242558838z" style="fill:rgb(19,69,162)"/><path d="M-131.30473818679317,124.68588788310446L-168.5267136997419,47.67828007727402L-134.30202520845174,122.12381465862273z" style="fill:rgb(22,67,168)"/><path d="M-149.6735994769437,-14.790348521158633L-152.7561957698975,53.727263378782546L-147.67926514209074,54.66642257409747z" style="fill:rgb(82,237,172)"/><path d="M181.2087775425412,-4.403238403082783L153.99218836548755,-85.25447583950935L180.58925387163413,-0.3734929475244059z" style="fill:rgb(243,156,171)"/><path d="M137.93140721860232,-57.25130020337582L149.7690120111795,-102.44044072183164L147.62166275120282,-104.6164879941602zM-149.6735994769437,-14.790348521158633L-147.67926514209074,54.66642257409747L-142.1593338709704,55.35884441001439z" style="fill:rgb(82,237,172)"/><path d="M181.2087775425412,-4.403238403082783L154.38283894594758,-88.59570659216125L153.99218836548755,-85.25447583950935z" style="fill:rgb(244,159,166)"/><path d="M-127.86668983108096,127.05090196220416L-165.27041390817578,49.51536830314508L-131.30473818679317,124.68588788310446z" style="fill:rgb(25,66,173)"/><path d="M-134.30202520845174,122.12381465862273L-168.5267136997419,47.67828007727402L-171.32537019026944,45.64154350527493z" style="fill:rgb(22,67,168)"/><path d="M137.93140721860232,-57.25130020337582L151.52632365499124,-100.06408902830505L149.7690120111795,-102.44044072183164z" style="fill:rgb(82,237,172)"/><path d="M180.58925387163413,-0.3734929475244059L153.1384743398597,-81.73316208452238L179.5120030391776,3.818900821823961z" style="fill:rgb(241,153,177)"/><path d="M-149.6735994769437,-14.790348521158633L-142.1593338709704,55.35884441001439L-136.20555687061693,55.796878864785796zM137.93140721860232,-57.25130020337582L152.87951844592763,-97.48894048639121L151.52632365499124,-100.06408902830505z" style="fill:rgb(82,237,172)"/><path d="M180.58925387163413,-0.3734929475244059L153.99218836548755,-85.25447583950935L153.1384743398597,-81.73316208452238z" style="fill:rgb(243,156,171)"/><path d="M-123.98823470097854,129.20713349906217L-161.5556221581451,51.142474119080994L-127.86668983108096,127.05090196220416z" style="fill:rgb(28,65,179)"/><path d="M-149.6735994769437,-14.790348521158633L-136.20555687061693,55.796878864785796L-129.82954466045356,55.97396589573706z" style="fill:rgb(82,237,172)"/><path d="M-131.30473818679317,124.68588788310446L-165.27041390817578,49.51536830314508L-168.5267136997419,47.67828007727402z" style="fill:rgb(25,66,173)"/><path d="M179.5120030391776,3.818900821823961L151.81331857872829,-78.03821502224798L177.96986442117785,8.164785291682806z" style="fill:rgb(240,150,182)"/><path d="M137.93140721860232,-57.25130020337582L153.81503785845564,-94.71707386439842L152.87951844592763,-97.48894048639121zM-149.6735994769437,-14.790348521158633L-129.82954466045356,55.97396589573706L-123.04500391895634,55.884269924149564z" style="fill:rgb(82,237,172)"/><path d="M179.5120030391776,3.818900821823961L153.1384743398597,-81.73316208452238L151.81331857872829,-78.03821502224798z" style="fill:rgb(241,153,177)"/><path d="M-119.67130895878532,131.14320786832093L-157.38325397605567,52.549647218607625L-123.98823470097854,129.20713349906217z" style="fill:rgb(32,65,184)"/><path d="M-127.86668983108096,127.05090196220416L-161.5556221581451,51.142474119080994L-165.27041390817578,49.51536830314508z" style="fill:rgb(28,65,179)"/><path d="M-149.6735994769437,-14.790348521158633L-123.04500391895634,55.884269924149564L-115.86832813356598,55.522953026989605z" style="fill:rgb(82,237,172)"/><path d="M177.96986442117785,8.164785291682806L150.00972794978762,-74.177013430476L175.95743844079436,12.653859861787605z" style="fill:rgb(237,147,187)"/><path d="M137.93140721860232,-57.25130020337582L154.32018896137092,-91.75148474410777L153.81503785845564,-94.71707386439842zM-149.6735994769437,-14.790348521158633L-115.86832813356598,55.522953026989605L-108.31804318363571,54.886583417732005zM137.93140721860232,-57.25130020337582L154.38283894594758,-88.59570659216125L154.32018896137092,-91.75148474410777z" style="fill:rgb(82,237,172)"/><path d="M-114.91998119185435,132.84803092418406L-152.7561957698975,53.727263378782546L-119.67130895878532,131.14320786832093z" style="fill:rgb(35,64,189)"/><path d="M177.96986442117785,8.164785291682806L151.81331857872829,-78.03821502224798L150.00972794978762,-74.177013430476z" style="fill:rgb(240,150,182)"/><path d="M-123.98823470097854,129.20713349906217L-157.38325397605567,52.549647218607625L-161.5556221581451,51.142474119080994z" style="fill:rgb(32,65,184)"/><path d="M175.95743844079436,12.653859861787605L147.72234485415942,-70.15774205613516L173.47070611798418,17.275017587020912z" style="fill:rgb(235,144,192)"/><path d="M-149.6735994769437,-14.790348521158633L-108.31804318363571,54.886583417732005L-100.41523107787,53.9728038289238zM137.93140721860232,-57.25130020337582L153.99218836548755,-85.25447583950935L154.38283894594758,-88.59570659216125zM-149.6735994769437,-14.790348521158633L-100.41523107787,53.9728038289238L-92.18330951996487,52.78044660155606z" style="fill:rgb(82,237,172)"/><path d="M-109.74005885785452,134.3111277933754L-147.67926514209074,54.66642257409747L-114.91998119185435,132.84803092418406z" style="fill:rgb(39,64,194)"/><path d="M175.95743844079436,12.653859861787605L150.00972794978762,-74.177013430476L147.72234485415942,-70.15774205613516z" style="fill:rgb(237,147,187)"/><path d="M-119.67130895878532,131.14320786832093L-152.7561957698975,53.727263378782546L-157.38325397605567,52.549647218607625z" style="fill:rgb(35,64,189)"/><path d="M173.47070611798418,17.275017587020912L144.94751281011702,-65.99002500055383L170.50777068343533,22.015945496409497z" style="fill:rgb(232,141,197)"/><path d="M-149.6735994769437,-14.790348521158633L-92.18330951996487,52.78044660155606L-83.64790536327864,51.30976647552309zM137.93140721860232,-57.25130020337582L153.1384743398597,-81.73316208452238L153.99218836548755,-85.25447583950935zM-149.6735994769437,-14.790348521158633L-83.64790536327864,51.30976647552309L-74.83703846448711,49.56253498255398z" style="fill:rgb(82,237,172)"/><path d="M-104.13959843686361,135.5226541011432L-142.1593338709704,55.35884441001439L-109.74005885785452,134.3111277933754z" style="fill:rgb(43,63,199)"/><path d="M-149.6735994769437,-14.790348521158633L83.40043291857262,-14.007277192090053L90.9316833753361,-18.781408956271292z" style="fill:rgb(82,237,172)"/><path d="M173.47070611798418,17.275017587020912L147.72234485415942,-70.15774205613516L144.94751281011702,-65.99002500055383z" style="fill:rgb(235,144,192)"/><path d="M137.93140721860232,-57.25130020337582L151.81331857872829,-78.03821502224798L153.1384743398597,-81.73316208452238zM-149.6735994769437,-14.790348521158633L-74.83703846448711,49.56253498255398L-65.7806424866594,47.54198934895733z" style="fill:rgb(82,237,172)"/><path d="M-114.91998119185435,132.84803092418406L-147.67926514209074,54.66642257409747L-152.7561957698975,53.727263378782546z" style="fill:rgb(39,64,194)"/><path d="M170.50777068343533,22.015945496409497L141.68374592952907,-61.684065692584426L167.06853807661247,26.86339068661445z" style="fill:rgb(229,138,202)"/><path d="M-149.6735994769437,-14.790348521158633L75.30892579092745,-9.135654106865873L83.40043291857262,-14.007277192090053zM-149.6735994769437,-14.790348521158633L-65.7806424866594,47.54198934895733L-56.510520210717566,45.25253078933494zM-149.6735994769437,-14.790348521158633L66.89349306513272,-4.317940579280214L75.30892579092745,-9.135654106865873zM-149.6735994769437,-14.790348521158633L-56.510520210717566,45.25253078933494L-47.06042406220396,42.700425899034094zM137.93140721860232,-57.25130020337582L150.00972794978762,-74.177013430476L151.81331857872829,-78.03821502224798z" style="fill:rgb(82,237,172)"/><path d="M-98.12859185555573,136.4733791314343L-136.20555687061693,55.796878864785796L-104.13959843686361,135.5226541011432z" style="fill:rgb(48,63,204)"/><path d="M-149.6735994769437,-14.790348521158633L58.183732992658406,0.4266075091594672L66.89349306513272,-4.317940579280214zM137.93140721860232,-57.25130020337582L-73.40590121162032,-16.055445882038022L90.9316833753361,-18.781408956271292z" style="fill:rgb(82,237,172)"/><path d="M170.50777068343533,22.015945496409497L144.94751281011702,-65.99002500055383L141.68374592952907,-61.684065692584426z" style="fill:rgb(232,141,197)"/><path d="M-149.6735994769437,-14.790348521158633L-47.06042406220396,42.700425899034094L-37.46525104472116,39.893338277389596z" style="fill:rgb(82,237,172)"/><path d="M167.06853807661247,26.86339068661445L137.93140721860232,-57.25130020337582L163.15494233991836,31.803256416023537z" style="fill:rgb(226,135,207)"/><path d="M-109.74005885785452,134.3111277933754L-142.1593338709704,55.35884441001439L-147.67926514209074,54.66642257409747z" style="fill:rgb(43,63,199)"/><path d="M-149.6735994769437,-14.790348521158633L49.21102699501125,5.078981503835805L58.183732992658406,0.4266075091594672zM-149.6735994769437,-14.790348521158633L-37.46525104472116,39.893338277389596L-27.761509514615906,36.84015302110669zM-149.6735994769437,-14.790348521158633L40.00900998243369,9.620333981096447L49.21102699501125,5.078981503835805zM-149.6735994769437,-14.790348521158633L-27.761509514615906,36.84015302110669L-17.986601847439463,33.551462965696274zM137.93140721860232,-57.25130020337582L147.72234485415942,-70.15774205613516L150.00972794978762,-74.177013430476zM-149.6735994769437,-14.790348521158633L30.612465697945932,14.032207656510394L40.00900998243369,9.620333981096447zM-149.6735994769437,-14.790348521158633L-17.986601847439463,33.551462965696274L-8.178609776002707,30.03901728613122zM-149.6735994769437,-14.790348521158633L21.057737600869363,18.296859487150638L30.612465697945932,14.032207656510394zM-149.6735994769437,-14.790348521158633L-8.178609776002707,30.03901728613122L1.623946856658219,26.31605837718731zM-149.6735994769437,-14.790348521158633L11.382227086691783,22.39686338234104L21.057737600869363,18.296859487150638zM-149.6735994769437,-14.790348521158633L1.623946856658219,26.31605837718731L11.382227086691783,22.39686338234104z" style="fill:rgb(82,237,172)"/><path d="M-91.71926794076566,137.15479738614275L-129.82954466045356,55.97396589573706L-98.12859185555573,136.4733791314343z" style="fill:rgb(52,63,208)"/><path d="M163.15494233991836,31.803256416023537L133.69304960592163,-52.704267295441724L158.77126604640043,36.82031672267649z" style="fill:rgb(223,132,211)"/><path d="M167.06853807661247,26.86339068661445L141.68374592952907,-61.684065692584426L137.93140721860232,-57.25130020337582z" style="fill:rgb(229,138,202)"/><path d="M-104.13959843686361,135.5226541011432L-136.20555687061693,55.796878864785796L-142.1593338709704,55.35884441001439z" style="fill:rgb(48,63,204)"/><path d="M137.93140721860232,-57.25130020337582L144.94751281011702,-65.99002500055383L147.72234485415942,-70.15774205613516z" style="fill:rgb(82,237,172)"/><path d="M-84.92606317734591,137.55961861721215L-123.04500391895634,55.884269924149564L-91.71926794076566,137.15479738614275z" style="fill:rgb(57,63,213)"/><path d="M158.77126604640043,36.82031672267649L128.9735892337428,-48.05637770869315L153.92401133709095,41.89871890476295z" style="fill:rgb(219,129,215)"/><path d="M137.93140721860232,-57.25130020337582L141.68374592952907,-61.684065692584426L144.94751281011702,-65.99002500055383z" style="fill:rgb(82,237,172)"/><path d="M163.15494233991836,31.803256416023537L137.93140721860232,-57.25130020337582L133.69304960592163,-52.704267295441724z" style="fill:rgb(226,135,207)"/><path d="M-98.12859185555573,136.4733791314343L-129.82954466045356,55.97396589573706L-136.20555687061693,55.796878864785796z" style="fill:rgb(52,63,208)"/><path d="M-77.76578520193647,137.68128168585721L-115.86832813356598,55.522953026989605L-84.92606317734591,137.55961861721215z" style="fill:rgb(62,64,217)"/><path d="M153.92401133709095,41.89871890476295L123.78040424779343,-43.321952164753824L148.62197299870462,47.02143634737376z" style="fill:rgb(215,125,219)"/><path d="M158.77126604640043,36.82031672267649L133.69304960592163,-52.704267295441724L128.9735892337428,-48.05637770869315z" style="fill:rgb(223,132,211)"/><path d="M-91.71926794076566,137.15479738614275L-123.04500391895634,55.884269924149564L-129.82954466045356,55.97396589573706z" style="fill:rgb(57,63,213)"/><path d="M-70.25750063230817,137.5143751073574L-108.31804318363571,54.886583417732005L-77.76578520193647,137.68128168585721z" style="fill:rgb(67,64,221)"/><path d="M148.62197299870462,47.02143634737376L118.12318324693412,-38.516162904884624L142.87656632335882,52.170999873301454z" style="fill:rgb(211,122,223)"/><path d="M153.92401133709095,41.89871890476295L128.9735892337428,-48.05637770869315L123.78040424779343,-43.321952164753824z" style="fill:rgb(219,129,215)"/><path d="M-84.92606317734591,137.55961861721215L-115.86832813356598,55.522953026989605L-123.04500391895634,55.884269924149564z" style="fill:rgb(62,64,217)"/><path d="M137.93140721860232,-57.25130020337582L128.9735892337428,-48.05637770869315L133.69304960592163,-52.704267295441724z" style="fill:rgb(82,237,172)"/><path d="M-62.42243331784586,137.054791777354L-100.41523107787,53.9728038289238L-70.25750063230817,137.5143751073574z" style="fill:rgb(72,65,224)"/><path d="M142.87656632335882,52.170999873301454L112.0143972847583,-33.655330464677114L136.70148854014369,57.32924457726651z" style="fill:rgb(207,119,226)"/><path d="M137.93140721860232,-57.25130020337582L123.78040424779343,-43.321952164753824L128.9735892337428,-48.05637770869315z" style="fill:rgb(82,237,172)"/><path d="M148.62197299870462,47.02143634737376L123.78040424779343,-43.321952164753824L118.12318324693412,-38.516162904884624z" style="fill:rgb(215,125,219)"/><path d="M-77.76578520193647,137.68128168585721L-108.31804318363571,54.886583417732005L-115.86832813356598,55.522953026989605z" style="fill:rgb(67,64,221)"/><path d="M-54.28398958955731,136.29975177241536L-92.18330951996487,52.78044660155606L-62.42243331784586,137.054791777354z" style="fill:rgb(78,66,228)"/><path d="M136.70148854014369,57.32924457726651L105.46891910421716,-28.7561702215275L130.11300415568144,62.47741575079966z" style="fill:rgb(202,116,229)"/><path d="M137.93140721860232,-57.25130020337582L118.12318324693412,-38.516162904884624L123.78040424779343,-43.321952164753824z" style="fill:rgb(82,237,172)"/><path d="M142.87656632335882,52.170999873301454L118.12318324693412,-38.516162904884624L112.0143972847583,-33.655330464677114z" style="fill:rgb(211,122,223)"/><path d="M-70.25750063230817,137.5143751073574L-100.41523107787,53.9728038289238L-108.31804318363571,54.886583417732005z" style="fill:rgb(72,65,224)"/><path d="M-45.86779166749571,135.24776772178444L-83.64790536327864,51.30976647552309L-54.28398958955731,136.29975177241536z" style="fill:rgb(83,67,231)"/><path d="M137.93140721860232,-57.25130020337582L112.0143972847583,-33.655330464677114L118.12318324693412,-38.516162904884624z" style="fill:rgb(82,237,172)"/><path d="M130.11300415568144,62.47741575079966L98.5042928362917,-23.836332938341354L123.1297788138595,67.59621538882617z" style="fill:rgb(197,113,232)"/><path d="M91.14058294188388,-18.91383464425036L122.93119988732465,67.7330728335719L123.1297788138595,67.59621538882617z" style="fill:rgb(192,110,235)"/><path d="M-37.20132848935562,133.89868847774488L-74.83703846448711,49.56253498255398L-45.86779166749571,135.24776772178444z" style="fill:rgb(89,68,233)"/><path d="M137.93140721860232,-57.25130020337582L105.46891910421716,-28.7561702215275L112.0143972847583,-33.655330464677114z" style="fill:rgb(82,237,172)"/><path d="M136.70148854014369,57.32924457726651L112.0143972847583,-33.655330464677114L105.46891910421716,-28.7561702215275z" style="fill:rgb(207,119,226)"/><path d="M91.82802355902027,-16.357806669140103L115.77304900338753,72.66611710229327L122.93119988732465,67.7330728335719z" style="fill:rgb(192,110,235)"/><path d="M-62.42243331784586,137.054791777354L-92.18330951996487,52.78044660155606L-100.41523107787,53.9728038289238z" style="fill:rgb(78,66,228)"/><path d="M137.93140721860232,-57.25130020337582L98.5042928362917,-23.836332938341354L105.46891910421716,-28.7561702215275z" style="fill:rgb(82,237,172)"/><path d="M-28.31414519163839,132.25401512734055L-65.7806424866594,47.54198934895733L-37.20132848935562,133.89868847774488z" style="fill:rgb(95,69,236)"/><path d="M115.77304900338753,72.66611710229327L83.40043291857262,-14.007277192090053L108.06610793648133,77.66764437021703z" style="fill:rgb(187,107,237)"/><path d="M130.11300415568144,62.47741575079966L105.46891910421716,-28.7561702215275L98.5042928362917,-23.836332938341354z" style="fill:rgb(202,116,229)"/><path d="M-54.28398958955731,136.29975177241536L-83.64790536327864,51.30976647552309L-92.18330951996487,52.78044660155606z" style="fill:rgb(83,67,231)"/><path d="M137.93140721860232,-57.25130020337582L91.14058294188388,-18.91383464425036L98.5042928362917,-23.836332938341354z" style="fill:rgb(82,237,172)"/><path d="M-19.237378259677666,130.31674081630044L-56.510520210717566,45.25253078933494L-28.31414519163839,132.25401512734055z" style="fill:rgb(101,71,238)"/><path d="M137.93140721860232,-57.25130020337582L90.9316833753361,-18.781408956271292L91.14058294188388,-18.91383464425036z" style="fill:rgb(82,237,172)"/><path d="M108.06610793648133,77.66764437021703L75.30892579092745,-9.135654106865873L100.03478168183707,82.58082524467713z" style="fill:rgb(182,104,240)"/><path d="M123.1297788138595,67.59621538882617L98.5042928362917,-23.836332938341354L91.14058294188388,-18.91383464425036z" style="fill:rgb(197,113,232)"/><path d="M-45.86779166749571,135.24776772178444L-74.83703846448711,49.56253498255398L-83.64790536327864,51.30976647552309z" style="fill:rgb(89,68,233)"/><path d="M-10.003814434595187,128.0915216466099L-47.06042406220396,42.700425899034094L-19.237378259677666,130.31674081630044z" style="fill:rgb(106,72,240)"/><path d="M100.03478168183707,82.58082524467713L66.89349306513272,-4.317940579280214L91.70682361434403,87.38625774149794z" style="fill:rgb(177,101,241)"/><path d="M91.14058294188388,-18.91383464425036L91.82802355902027,-16.357806669140103L122.93119988732465,67.7330728335719z" style="fill:rgb(192,110,235)"/><path d="M-0.6476469701366812,125.58420665874917L-37.46525104472116,39.893338277389596L-10.003814434595187,128.0915216466099z" style="fill:rgb(112,74,242)"/><path d="M91.70682361434403,87.38625774149794L58.183732992658406,0.4266075091594672L83.11211756266961,92.06459668250889z" style="fill:rgb(171,98,243)"/><path d="M91.82802355902027,-16.357806669140103L83.40043291857262,-14.007277192090053L115.77304900338753,72.66611710229327z" style="fill:rgb(192,110,235)"/><path d="M-37.20132848935562,133.89868847774488L-65.7806424866594,47.54198934895733L-74.83703846448711,49.56253498255398z" style="fill:rgb(95,69,236)"/><path d="M8.796094937217617,122.80260043067568L-27.761509514615906,36.84015302110669L-0.6476469701366812,125.58420665874917z" style="fill:rgb(118,76,243)"/><path d="M83.11211756266961,92.06459668250889L49.21102699501125,5.078981503835805L74.28202174707485,96.59689231750475z" style="fill:rgb(166,95,244)"/><path d="M18.29123626101708,119.75584723837262L-17.986601847439463,33.551462965696274L8.796094937217617,122.80260043067568z" style="fill:rgb(124,78,245)"/><path d="M74.28202174707485,96.59689231750475L40.00900998243369,9.620333981096447L65.24984787449922,100.96489201004798z" style="fill:rgb(160,92,245)"/><path d="M108.06610793648133,77.66764437021703L83.40043291857262,-14.007277192090053L75.30892579092745,-9.135654106865873z" style="fill:rgb(187,107,237)"/><path d="M-28.31414519163839,132.25401512734055L-56.510520210717566,45.25253078933494L-65.7806424866594,47.54198934895733z" style="fill:rgb(101,71,238)"/><path d="M27.80125657386179,116.45462670081358L-8.178609776002707,30.03901728613122L18.29123626101708,119.75584723837262z" style="fill:rgb(130,80,245)"/><path d="M65.24984787449922,100.96489201004798L30.612465697945932,14.032207656510394L56.049762274073885,105.1508062433101z" style="fill:rgb(154,90,246)"/><path d="M37.28890111587753,112.91088759253017L1.623946856658219,26.31605837718731L27.80125657386179,116.45462670081358z" style="fill:rgb(136,82,246)"/><path d="M56.049762274073885,105.1508062433101L21.057737600869363,18.296859487150638L46.71731915869138,109.13809759581493z" style="fill:rgb(148,87,246)"/><path d="M46.71731915869138,109.13809759581493L11.382227086691783,22.39686338234104L37.28890111587753,112.91088759253017z" style="fill:rgb(142,85,246)"/><path d="M100.03478168183707,82.58082524467713L75.30892579092745,-9.135654106865873L66.89349306513272,-4.317940579280214z" style="fill:rgb(182,104,240)"/><path d="M-19.237378259677666,130.31674081630044L-47.06042406220396,42.700425899034094L-56.510520210717566,45.25253078933494z" style="fill:rgb(106,72,240)"/><path d="M91.82802355902027,-16.357806669140103L91.14058294188388,-18.91383464425036L90.9316833753361,-18.781408956271292z" style="fill:rgb(192,110,235)"/><path d="M91.70682361434403,87.38625774149794L66.89349306513272,-4.317940579280214L58.183732992658406,0.4266075091594672z" style="fill:rgb(177,101,241)"/><path d="M-10.003814434595187,128.0915216466099L-37.46525104472116,39.893338277389596L-47.06042406220396,42.700425899034094z" style="fill:rgb(112,74,242)"/><path d="M91.82802355902027,-16.357806669140103L90.9316833753361,-18.781408956271292L83.40043291857262,-14.007277192090053z" style="fill:rgb(192,110,235)"/><path d="M83.11211756266961,92.06459668250889L58.183732992658406,0.4266075091594672L49.21102699501125,5.078981503835805z" style="fill:rgb(171,98,243)"/><path d="M-0.6476469701366812,125.58420665874917L-27.761509514615906,36.84015302110669L-37.46525104472116,39.893338277389596z" style="fill:rgb(118,76,243)"/><path d="M74.28202174707485,96.59689231750475L49.21102699501125,5.078981503835805L40.00900998243369,9.620333981096447z" style="fill:rgb(166,95,244)"/><path d="M8.796094937217617,122.80260043067568L-17.986601847439463,33.551462965696274L-27.761509514615906,36.84015302110669z" style="fill:rgb(124,78,245)"/><path d="M65.24984787449922,100.96489201004798L40.00900998243369,9.620333981096447L30.612465697945932,14.032207656510394z" style="fill:rgb(160,92,245)"/><path d="M18.29123626101708,119.75584723837262L-8.178609776002707,30.03901728613122L-17.986601847439463,33.551462965696274z" style="fill:rgb(130,80,245)"/><path d="M56.049762274073885,105.1508062433101L30.612465697945932,14.032207656510394L21.057737600869363,18.296859487150638z" style="fill:rgb(154,90,246)"/><path d="M27.80125657386179,116.45462670081358L1.623946856658219,26.31605837718731L-8.178609776002707,30.03901728613122z" style="fill:rgb(136,82,246)"/><path d="M46.71731915869138,109.13809759581493L21.057737600869363,18.296859487150638L11.382227086691783,22.39686338234104z" style="fill:rgb(148,87,246)"/><path d="M37.28890111587753,112.91088759253017L11.382227086691783,22.39686338234104L1.623946856658219,26.31605837718731z" style="fill:rgb(142,85,246)"/></svg>